<?xml version="1.0" standalone="no"?>
<!DOCTYPE svg PUBLIC "-//W3C//DTD SVG 20010904//EN"
 "http://www.w3.org/TR/2001/REC-SVG-20010904/DTD/svg10.dtd">
<svg version="1.0" xmlns="http://www.w3.org/2000/svg"
 width="1080.000000pt" height="1080.000000pt" viewBox="0 0 1080.000000 1080.000000"
 preserveAspectRatio="xMidYMid meet">

<g transform="translate(0.000000,1080.000000) scale(0.100000,-0.100000)"
fill="#000000" stroke="none">
<path d="M0 5400 l0 -5400 5400 0 5400 0 0 5400 0 5400 -5400 0 -5400 0 0
-5400z m4776 1667 c21 -12 90 -88 260 -287 45 -52 106 -117 135 -144 129 -118
366 -357 624 -627 221 -233 261 -276 291 -312 17 -20 34 -37 38 -37 4 0 6 276
4 613 -3 608 -3 612 -25 653 -28 52 -83 100 -147 130 l-51 23 355 0 355 1 -47
-44 c-26 -24 -59 -64 -75 -88 l-28 -43 -5 -895 -5 -895 -108 -3 c-78 -3 -114
0 -135 11 -173 90 -187 100 -334 248 -82 81 -148 152 -148 158 0 5 8 12 18 16
9 3 30 16 45 29 l28 23 -16 124 c-23 181 -42 248 -91 329 -31 53 -94 128 -101
122 -2 -1 -27 10 -56 24 -153 78 -315 69 -450 -26 l-57 -40 -31 33 c-17 17
-72 75 -122 127 -51 52 -118 123 -150 158 l-57 63 0 -603 0 -603 24 -50 c13
-27 35 -61 50 -74 14 -14 26 -28 26 -32 0 -4 -18 -14 -39 -22 -33 -13 -87 -16
-319 -15 l-281 1 54 35 c40 27 62 50 85 93 l30 57 0 776 c0 557 -3 790 -12
824 -9 38 -25 61 -80 115 l-68 67 298 0 c214 -1 303 -4 318 -13z m722 -911
c59 -21 97 -50 131 -99 73 -106 97 -175 107 -301 4 -45 11 -87 17 -94 15 -19
-17 -48 -68 -61 -55 -14 -124 0 -177 35 -42 27 -46 48 -27 117 8 30 15 37 34
37 49 0 79 55 56 99 -23 42 -220 89 -413 98 -65 3 -118 10 -118 14 0 18 75 91
119 117 84 50 129 62 216 57 44 -2 99 -11 123 -19z m-239 -211 c67 -8 130 -16
140 -19 9 -2 28 -7 44 -10 33 -8 35 -29 11 -119 -9 -34 -22 -100 -29 -147 -22
-136 -51 -148 -265 -115 -166 26 -240 17 -240 -28 0 -13 6 -29 13 -36 10 -11
9 -13 -3 -9 -20 6 -27 53 -17 116 7 44 13 55 35 64 31 13 247 16 342 5 81 -9
68 5 -25 27 -110 26 -223 37 -309 29 -65 -5 -80 -9 -84 -25 -6 -25 -22 -23
-22 4 0 12 5 60 12 106 12 83 13 85 48 100 26 12 72 15 185 14 83 0 164 -3
180 -5 91 -16 119 -19 114 -13 -15 16 -218 46 -311 46 -138 0 -118 21 27 28
17 1 86 -5 154 -13z m272 -65 c39 -21 15 -79 -26 -64 -21 9 -19 74 2 74 3 0
13 -5 24 -10z m82 -419 c4 -67 2 -76 -18 -95 -12 -12 -42 -40 -66 -63 -25 -22
-55 -62 -67 -87 -13 -25 -25 -46 -27 -46 -3 0 -12 15 -21 33 -9 17 -27 44 -41
59 -16 17 -23 32 -19 45 7 18 105 86 118 81 10 -4 52 59 72 108 20 46 46 71
57 52 3 -7 9 -46 12 -87z m-420 -69 c34 9 64 15 65 13 8 -8 -53 -39 -86 -45
-42 -7 -92 6 -92 24 0 23 13 26 32 9 18 -16 23 -16 81 -1z m481 2 c9 -8 16
-21 16 -29 0 -22 52 -126 65 -132 26 -9 144 -390 133 -425 -3 -8 -22 -12 -54
-10 -27 1 -44 0 -39 -2 6 -2 29 -9 52 -16 l42 -13 6 -71 c3 -39 3 -96 -2 -126
l-8 -55 -59 -10 c-58 -10 -58 -10 -30 -22 16 -7 20 -10 9 -8 -11 2 -70 14
-132 26 l-112 22 -3 71 c-3 69 -4 71 -35 86 -32 15 -33 16 -33 85 -2 108 -18
127 -19 21 -1 -69 -4 -86 -13 -78 -7 5 -22 11 -33 13 -18 4 -19 12 -16 137 3
157 -12 220 -70 295 -21 26 -41 56 -44 67 -4 11 -10 20 -14 20 -3 0 -31 -25
-61 -55 -57 -58 -58 -61 -14 -45 40 16 73 4 122 -40 l44 -40 0 -117 c1 -222 2
-214 -29 -207 -16 4 -39 14 -53 23 -48 31 -74 39 -95 28 -40 -20 -95 -82 -101
-114 -5 -26 -11 -33 -29 -33 -16 0 -26 7 -30 23 -4 12 -14 37 -22 56 -8 19
-16 48 -17 65 -1 28 2 31 46 41 68 15 71 27 6 19 -56 -7 -57 -6 -51 17 35 154
99 307 152 364 23 25 41 50 42 57 3 59 12 66 44 34 14 -14 31 -26 36 -26 33 0
117 -127 155 -235 6 -17 8 -16 14 12 16 69 95 196 164 262 21 20 36 45 36 58
0 27 12 29 34 7z m219 -160 c19 -11 71 -169 61 -185 -3 -5 -1 -9 4 -9 17 0 32
-173 31 -346 -1 -93 -4 -155 -6 -139 -19 147 -95 430 -161 602 -18 45 -32 86
-32 91 0 10 80 0 103 -14z m-835 -81 c-17 -43 -35 -84 -40 -90 -6 -7 -7 -13
-3 -13 4 0 3 -6 -3 -13 -7 -8 -25 -11 -47 -9 l-36 4 6 42 c15 94 66 154 131
156 22 0 21 -1 -8 -77z m984 4 c44 -21 86 -48 105 -70 65 -75 140 -265 146
-371 2 -30 9 -50 24 -63 11 -10 23 -35 26 -55 5 -33 1 -41 -36 -77 -22 -23
-45 -41 -50 -41 -4 0 -5 -4 -2 -10 4 -6 20 -4 43 6 34 14 38 14 49 -2 7 -10
13 -29 13 -42 0 -19 -4 -23 -19 -19 -12 3 -28 -4 -40 -17 -18 -19 -33 -23 -89
-23 -73 -1 -92 7 -92 42 0 16 21 39 71 79 39 31 66 56 61 56 -5 0 -35 -9 -68
-20 -85 -28 -106 -27 -103 8 1 15 -1 46 -5 69 -7 39 -4 50 31 110 52 93 52 94
-2 43 l-48 -45 6 70 c4 39 9 88 12 110 5 36 3 34 -16 -20 -25 -67 -28 -64 -49
50 -11 64 -40 188 -56 243 -9 29 1 28 88 -11z m-1138 -94 c-13 -54 -27 -123
-31 -153 l-9 -55 -23 63 c-13 34 -25 61 -27 59 -2 -2 0 -35 5 -73 4 -38 6 -74
4 -81 -3 -7 -29 -17 -59 -23 -52 -11 -73 -29 -36 -31 24 -1 93 -41 105 -60 6
-9 7 -24 4 -33 -7 -17 -39 -16 -102 1 -17 5 -17 4 -5 -9 8 -8 27 -22 43 -32
36 -24 34 -43 -5 -52 -52 -13 -77 -7 -114 25 -18 17 -56 38 -84 48 -42 15 -49
21 -44 38 10 33 17 35 74 26 30 -5 56 -8 57 -7 2 2 -11 18 -27 36 -17 19 -30
36 -30 40 0 8 94 173 135 238 18 29 125 107 139 103 4 -1 14 5 22 14 29 29 31
14 8 -82z m86 -90 c-4 -16 -13 -41 -20 -58 -7 -16 -23 -73 -35 -125 l-23 -95
-1 100 c0 55 2 124 5 153 l7 52 38 0 c36 0 37 -1 29 -27z m235 -242 c-5 -15 1
-20 32 -26 78 -14 174 -37 170 -41 -2 -2 -45 5 -97 16 -51 12 -98 19 -104 17
-10 -3 24 -12 179 -47 25 -6 41 -6 43 0 5 14 48 12 60 -2 17 -22 2 -78 -22
-84 -16 -4 -25 -17 -33 -45 -10 -38 -9 -41 14 -50 13 -5 31 -9 39 -9 10 0 14
-9 12 -27 -3 -25 1 -28 42 -36 49 -9 129 -25 255 -53 l80 -17 -35 -15 c-42
-17 -47 -24 -62 -80 -9 -38 -14 -43 -32 -37 -12 4 -59 13 -106 20 -47 8 -107
19 -134 25 -37 8 -51 8 -57 -1 -5 -8 -23 -10 -61 -5 -29 3 -62 7 -73 9 -15 1
-21 -5 -23 -25 l-3 -28 69 0 69 0 5 -102 c4 -71 13 -126 30 -175 19 -57 21
-73 11 -73 -8 0 -12 -4 -8 -9 7 -12 -125 -75 -135 -64 -5 4 -21 42 -38 83 -32
83 -52 180 -52 258 0 48 -2 52 -23 52 -13 0 -32 -7 -43 -15 -20 -15 -74 -18
-114 -5 -20 6 -15 8 25 9 61 2 67 5 93 56 l21 40 1 -32 c0 -38 23 -45 40 -14
12 23 13 61 3 61 -18 0 -347 71 -351 75 -10 10 44 5 113 -11 118 -26 155 -29
155 -12 0 11 -15 17 -50 22 -27 4 -55 13 -63 20 -20 20 -147 47 -168 35 -37
-19 -48 -12 -42 29 10 60 20 80 53 97 27 14 40 15 83 5 112 -25 174 -38 219
-44 26 -4 50 -11 53 -16 3 -5 11 -7 18 -4 7 2 42 -2 78 -11 35 -8 75 -14 89
-14 38 1 -130 40 -347 81 -68 12 -123 26 -123 30 0 26 65 32 132 12 10 -3 21
3 27 14 15 28 21 72 10 72 -18 0 -10 52 10 57 10 2 24 16 31 29 16 29 44 33
35 5z m-1021 -52 c33 -5 127 -20 208 -32 l147 -22 45 -43 c26 -24 44 -47 42
-50 -2 -4 40 -16 95 -26 54 -10 99 -24 99 -30 0 -6 -3 -28 -6 -48 -8 -43 -14
-45 -105 -26 -49 10 -81 8 -221 -11 -331 -46 -384 -52 -423 -49 l-40 3 1 101
c1 73 7 121 23 172 24 82 23 81 135 61z m1673 -215 c-3 -3 -12 -4 -19 -1 -8 3
-5 6 6 6 11 1 17 -2 13 -5z m-208 -28 c53 -13 188 -43 301 -66 264 -54 256
-52 252 -81 -2 -13 -5 -42 -8 -64 -9 -72 -14 -85 -33 -85 -26 0 -37 17 -52 75
-7 28 -17 53 -23 57 -6 4 0 8 13 8 13 0 22 2 19 5 -5 5 -326 76 -498 111 -100
20 -99 20 -93 43 7 26 6 26 122 -3z m710 -70 c8 -10 9 -32 1 -82 -5 -38 -10
-74 -10 -80 0 -6 19 -14 42 -18 23 -4 48 -12 55 -18 7 -5 20 -8 28 -4 9 3 50
-2 91 -11 l76 -16 -6 -31 c-4 -16 -8 -31 -10 -34 -8 -7 -155 27 -179 42 -32
20 -117 31 -117 15 0 -7 -9 -4 -22 8 -24 23 -65 32 -85 20 -14 -9 -27 43 -18
72 3 11 22 37 41 58 20 21 43 50 52 66 18 29 43 35 61 13z m-1834 -31 c28 -9
67 -20 88 -26 37 -10 38 -11 23 -28 -16 -17 -15 -19 8 -23 14 -3 23 -2 21 2
-11 18 45 51 102 60 52 9 70 7 139 -14 174 -53 192 -64 178 -101 -8 -19 -5
-19 -125 11 -55 14 -103 23 -106 21 -2 -3 21 -17 51 -31 64 -30 85 -58 62 -81
-20 -21 -34 -19 -95 11 -28 15 -55 24 -58 21 -3 -4 20 -18 50 -32 58 -28 75
-49 56 -71 -12 -15 -58 -9 -102 13 -39 20 -46 9 -8 -13 21 -12 27 -20 18 -26
-7 -4 1 -6 18 -5 35 2 47 -26 16 -42 -15 -9 -30 -6 -70 15 -28 14 -74 32 -101
40 -73 22 -110 67 -110 135 0 19 -4 28 -11 24 -6 -4 -8 -27 -5 -57 l6 -51 -59
6 c-92 8 -141 46 -141 108 0 49 15 87 48 122 30 31 39 32 107 12z m-169 -93
c0 -42 6 -87 13 -100 12 -22 11 -23 -7 -13 -49 26 -76 135 -43 175 27 32 36
17 37 -62z m1564 -63 c0 -119 0 -120 -22 -117 -22 3 -23 8 -26 90 -2 61 2 98
12 123 26 60 36 32 36 -96z m-73 3 c-9 -75 -14 -92 -26 -90 -31 6 -26 151 6
183 27 27 32 4 20 -93z m142 95 c6 -8 13 -64 16 -125 5 -106 4 -112 -15 -112
-29 0 -42 35 -44 119 -1 111 14 153 43 118z m74 6 c-7 -2 -19 -2 -25 0 -7 3
-2 5 12 5 14 0 19 -2 13 -5z m18 -90 c19 -88 18 -147 -3 -151 -24 -5 -37 26
-44 106 -7 77 -2 102 20 102 10 0 19 -19 27 -57z m179 -138 c-21 -25 -32 -17
-13 9 10 13 20 20 21 15 2 -5 -2 -16 -8 -24z m-1467 -87 c20 -7 37 -16 37 -20
0 -16 -45 -7 -87 17 -67 40 -59 40 50 3z"/>
<path d="M5515 5701 c15 -25 201 -57 209 -36 3 8 -16 12 -58 12 -33 1 -81 8
-105 17 -51 19 -54 19 -46 7z"/>
<path d="M4995 5876 c-5 -3 -27 -7 -48 -11 -41 -7 -49 -19 -60 -87 l-6 -37
126 0 c69 -1 129 -3 133 -6 4 -2 28 -7 53 -10 51 -6 51 -6 62 77 6 40 4 48
-14 57 -20 11 -226 25 -246 17z"/>
<path d="M5336 5821 c-4 -5 -2 -12 3 -15 5 -4 12 -2 15 3 4 5 2 12 -3 15 -5 4
-12 2 -15 -3z"/>
<path d="M5546 5193 c-72 -113 -79 -131 -78 -207 2 -90 12 -100 12 -12 l0 68
58 59 57 60 54 -6 53 -7 -38 42 c-22 23 -43 48 -47 56 -14 25 -26 15 -71 -53z"/>
<path d="M5778 4773 c7 -3 16 -2 19 1 4 3 -2 6 -13 5 -11 0 -14 -3 -6 -6z"/>
<path d="M5598 4703 c7 -3 16 -2 19 1 4 3 -2 6 -13 5 -11 0 -14 -3 -6 -6z"/>
<path d="M5903 5030 c-33 -13 -28 -20 13 -20 23 0 34 4 32 12 -6 16 -19 18
-45 8z"/>
<path d="M5184 4604 c-4 -11 -9 -22 -10 -25 -4 -7 137 -44 203 -54 36 -6 42
-4 48 16 5 13 2 24 -6 30 -17 10 -121 36 -181 44 -41 6 -49 5 -54 -11z"/>
<path d="M5170 4528 c14 -6 32 -12 40 -13 8 -1 52 -10 98 -19 45 -10 88 -15
95 -13 16 6 6 9 -113 36 -52 12 -106 21 -120 21 l-25 -1 25 -11z"/>
<path d="M5159 4454 c-1 -5 -1 -12 -1 -15 1 -4 -14 -3 -33 1 -19 4 -35 5 -35
1 0 -8 59 -26 138 -42 28 -6 50 -15 47 -19 -3 -5 6 -7 21 -4 14 3 31 1 38 -4
6 -5 29 -12 51 -16 22 -4 48 -9 58 -12 12 -4 17 0 17 14 0 15 -11 21 -52 30
-29 6 -77 16 -105 23 -29 6 -53 14 -53 19 0 4 -12 10 -27 13 -16 3 -36 9 -45
12 -10 4 -19 3 -19 -1z"/>
<path d="M5387 4098 c5 -75 31 -207 45 -228 6 -10 7 -4 3 20 -3 19 -13 73 -21
118 -8 46 -14 98 -12 114 2 17 -2 33 -9 35 -8 3 -10 -14 -6 -59z"/>
<path d="M5312 4070 c-1 -75 14 -161 38 -212 14 -30 25 -35 36 -16 4 6 3 8 -4
4 -18 -11 -57 139 -65 254 -2 26 -4 13 -5 -30z"/>
<path d="M4290 4646 c0 -2 7 -6 15 -10 8 -3 15 -1 15 4 0 6 -7 10 -15 10 -8 0
-15 -2 -15 -4z"/>
<path d="M4119 4605 c-11 -17 -33 -191 -26 -208 5 -14 18 -15 84 -11 43 2 112
11 153 19 41 8 86 16 100 17 14 2 25 9 25 18 0 11 -30 20 -125 37 -69 12 -142
22 -162 22 l-37 1 -3 58 c-2 31 -6 53 -9 47z"/>
<path d="M6307 4304 c-15 -25 -25 -50 -22 -55 7 -11 52 -12 58 -1 10 16 11 95
2 98 -5 2 -22 -17 -38 -42z"/>
<path d="M6255 4231 c-16 -7 -15 -8 10 -14 17 -3 38 -9 48 -12 10 -4 17 -3 17
4 0 6 -8 11 -18 11 -10 0 -22 4 -27 9 -6 5 -19 5 -30 2z"/>
<path d="M6530 4119 c0 -5 8 -9 19 -9 10 0 34 -3 52 -6 23 -4 29 -2 19 4 -22
14 -90 22 -90 11z"/>
<path d="M4610 4268 c-12 -22 -12 -22 6 -6 10 10 15 20 12 24 -4 3 -12 -5 -18
-18z"/>
</g>
</svg>
